<?xml version="1.0" encoding="utf-8"?>
<!-- Generator: Adobe Illustrator 22.1.0, SVG Export Plug-In . SVG Version: 6.00 Build 0)  -->
<svg version="1.1" id="Слой_1" xmlns="http://www.w3.org/2000/svg" xmlns:xlink="http://www.w3.org/1999/xlink" x="0px" y="0px"
	 viewBox="0 0 64 64" style="enable-background:new 0 0 64 64;" xml:space="preserve">
<style type="text/css">
	.st0{fill:#FFFFFF;}
	.st1{stroke:#000000;stroke-miterlimit:10;}
</style>
<rect class="st0" width="63.8" height="63.8"/>
<rect x="2.2" y="2.2" class="st1" width="59.4" height="59.4"/>
<g>
	<path d="M40,10.8c-0.6-4.1-4.2-7-8.5-6.8c-3.8,0.2-7.2,3.4-7.2,6.8C29.5,10.8,34.7,10.8,40,10.8z"/>
	<path class="st0" d="M27.4,34.8c-0.2-1-1.9-1-2.1,0c0,0.5,0,1.1,0,1.6c0,6-0.1,12,0,18.1c0,2.2-1.9,5.1-5,5.1c-2.7,0-4.8-2.2-4.8-5
		c0-8.1,0-16.1,0-24.2c0-3,1.8-4.8,4.9-4.8c4.1,0,8.3,0,12.4,0c2.6,0,4.5,1.9,4.5,4.5c0,5.9,0,11.8,0,17.8c0,0.6,0,1.1,0,1.8
		c0.4,1,2.2,0.9,2.5,0c0-0.5,0-0.8,0-1.3c0-6,0-11.9,0-17.9c0-3.6-2.3-6.4-4.9-7.2c-0.5-0.1-1-0.2-1.5-0.2c-4.3,0-8.7,0-13,0
		c-2.6,0-4.8-2.1-4.8-4.7c-0.1-2.9,1.8-5.1,4.6-5.1c8.4,0,14.2,0,22.6,0c3.8,0,6.9,2.7,6.9,6.7c0,10.8-0.1,19.8-0.1,30.5
		c0,1.3,0,2.7,0,4c0,2.9-2.1,5.1-4.9,5.1c-3.9,0.1-7.9,0.1-11.8,0c-3.7-0.1-5.3-2.3-5.3-5.8c0-5.7,0-11.4,0-17.2
		C27.4,35.9,27.4,35.4,27.4,34.8z"/>
	<path class="st0" d="M40,10.8c-5.3,0-10.5,0-15.7,0c0-3.4,3.4-6.5,7.2-6.8C35.8,3.7,39.5,6.6,40,10.8z"/>
</g>
</svg>
